HIERARCHY
ROOT hip
{
  OFFSET 0 0 0
  CHANNELS 6 Xposition Yposition Zposition Zrotation Yrotation Xrotation
  JOINT abdomen
  {
    OFFSET 0 20.6881 -0.73152
    CHANNELS 3 Zrotation Xrotation Yrotation
    JOINT chest
    {
      OFFSET 0 11.7043 -0.48768
      CHANNELS 3 Zrotation Xrotation Yrotation
      JOINT neck
      {
        OFFSET 0 22.1894 -2.19456
        CHANNELS 3 Zrotation Xrotation Yrotation
        JOINT head
        {
          OFFSET -0.24384 7.07133 1.2192
          CHANNELS 3 Zrotation Xrotation Yrotation
          JOINT leftEye
          {
            OFFSET 4.14528 8.04674 8.04672
            CHANNELS 3 Zrotation Xrotation Yrotation
            End Site
            {
              OFFSET 1 0 0
            }
          }
          JOINT rightEye
          {
            OFFSET -3.6576 8.04674 8.04672
            CHANNELS 3 Zrotation Xrotation Yrotation
            End Site
            {
              OFFSET 1 0 0
            }
          }
        }
      }
      JOINT rCollar
      {
        OFFSET -2.68224 19.2634 -4.8768
        CHANNELS 3 Zrotation Xrotation Yrotation
        JOINT rShldr
        {
          OFFSET -8.77824 -1.95073 1.46304
          CHANNELS 3 Zrotation Xrotation Yrotation
          JOINT rForeArm
          {
            OFFSET -28.1742 -1.7115 0.48768
            CHANNELS 3 Zrotation Xrotation Yrotation
            JOINT rHand
            {
              OFFSET -22.5879 0.773209 7.07136
              CHANNELS 3 Zrotation Xrotation Yrotation
              JOINT rThumb1
              {
                OFFSET -1.2192 -0.487915 3.41376
                CHANNELS 3 Zrotation Xrotation Yrotation
                JOINT rThumb2
                {
                  OFFSET -3.37035 -0.52449 3.41376
                  CHANNELS 3 Zrotation Xrotation Yrotation
                  End Site
                  {
                    OFFSET -1.78271 -1.18214 1.43049
                  }
                }
              }
              JOINT rIndex1
              {
                OFFSET -7.75947 0.938293 5.60832
                CHANNELS 3 Zrotation Xrotation Yrotation
                JOINT rIndex2
                {
                  OFFSET -2.54057 -0.884171 1.56538
                  CHANNELS 3 Zrotation Xrotation Yrotation
                  End Site
                  {
                    OFFSET -1.62519 -0.234802 1.16502
                  }
                }
              }
              JOINT rMid1
              {
                OFFSET -8.24714 1.18213 3.41376
                CHANNELS 3 Zrotation Xrotation Yrotation
                JOINT rMid2
                {
                  OFFSET -3.10165 -0.590103 1.0647
                  CHANNELS 3 Zrotation Xrotation Yrotation
                  End Site
                  {
                    OFFSET -2.48547 -0.328903 0.83742
                  }
                }
              }
              JOINT rRing1
              {
                OFFSET -8.82822 0.546677 1.51678
                CHANNELS 3 Zrotation Xrotation Yrotation
                JOINT rRing2
                {
                  OFFSET -2.60934 -0.819778 -0.0198488
                  CHANNELS 3 Zrotation Xrotation Yrotation
                  End Site
                  {
                    OFFSET -2.33842 -0.294052 0.168128
                  }
                }
              }
              JOINT rPinky1
              {
                OFFSET -8.27202 -0.0477905 -0.4584
                CHANNELS 3 Zrotation Xrotation Yrotation
                JOINT rPinky2
                {
                  OFFSET -1.82734 -0.647385 -0.700984
                  CHANNELS 3 Zrotation Xrotation Yrotation
                  End Site
                  {
                    OFFSET -1.69225 -0.51767 -0.607171
                  }
                }
              }
            }
          }
        }
      }
      JOINT lCollar
      {
        OFFSET 2.68224 19.2634 -4.8768
        CHANNELS 3 Zrotation Xrotation Yrotation
        JOINT lShldr
        {
          OFFSET 8.77824 -1.95073 1.46304
          CHANNELS 3 Zrotation Xrotation Yrotation
          JOINT lForeArm
          {
            OFFSET 28.1742 -1.7115 0.48768
            CHANNELS 3 Zrotation Xrotation Yrotation
            JOINT lHand
            {
              OFFSET 22.5879 0.773209 7.07136
              CHANNELS 3 Zrotation Xrotation Yrotation
              JOINT lThumb1
              {
                OFFSET 1.2192 -0.487915 3.41376
                CHANNELS 3 Zrotation Xrotation Yrotation
                JOINT lThumb2
                {
                  OFFSET 3.37035 -0.52449 3.41376
                  CHANNELS 3 Zrotation Xrotation Yrotation
                  End Site
                  {
                    OFFSET 1.78271 -1.18214 1.43049
                  }
                }
              }
              JOINT lIndex1
              {
                OFFSET 7.75947 0.938293 5.60832
                CHANNELS 3 Zrotation Xrotation Yrotation
                JOINT lIndex2
                {
                  OFFSET 2.54057 -0.884171 1.56538
                  CHANNELS 3 Zrotation Xrotation Yrotation
                  End Site
                  {
                    OFFSET 1.62519 -0.234802 1.16502
                  }
                }
              }
              JOINT lMid1
              {
                OFFSET 8.24714 1.18213 3.41376
                CHANNELS 3 Zrotation Xrotation Yrotation
                JOINT lMid2
                {
                  OFFSET 3.10165 -0.590103 1.0647
                  CHANNELS 3 Zrotation Xrotation Yrotation
                  End Site
                  {
                    OFFSET 2.48547 -0.328903 0.83742
                  }
                }
              }
              JOINT lRing1
              {
                OFFSET 8.82822 0.546677 1.51678
                CHANNELS 3 Zrotation Xrotation Yrotation
                JOINT lRing2
                {
                  OFFSET 2.60934 -0.819778 -0.0198488
                  CHANNELS 3 Zrotation Xrotation Yrotation
                  End Site
                  {
                    OFFSET 2.33842 -0.294052 0.168128
                  }
                }
              }
              JOINT lPinky1
              {
                OFFSET 8.27202 -0.0477905 -0.4584
                CHANNELS 3 Zrotation Xrotation Yrotation
                JOINT lPinky2
                {
                  OFFSET 1.82734 -0.647385 -0.700984
                  CHANNELS 3 Zrotation Xrotation Yrotation
                  End Site
                  {
                    OFFSET 1.69225 -0.51767 -0.607171
                  }
                }
              }
            }
          }
        }
      }
    }
  }
  JOINT rButtock
  {
    OFFSET -8.77824 4.35084 1.2192
    CHANNELS 3 Zrotation Xrotation Yrotation
    JOINT rThigh
    {
      OFFSET 0 -1.70687 -2.19456
      CHANNELS 3 Zrotation Xrotation Yrotation
      JOINT rShin
      {
        OFFSET 0 -36.8199 0.73152
        CHANNELS 3 Zrotation Xrotation Yrotation
        JOINT rFoot
        {
          OFFSET 0.73152 -45.1104 -5.12064
          CHANNELS 3 Zrotation Xrotation Yrotation
          End Site
          {
            OFFSET -1.1221 -3.69964 12.103
          }
        }
      }
    }
  }
  JOINT lButtock
  {
    OFFSET 8.77824 4.35084 1.2192
    CHANNELS 3 Zrotation Xrotation Yrotation
    JOINT lThigh
    {
      OFFSET 0 -1.70687 -2.19456
      CHANNELS 3 Zrotation Xrotation Yrotation
      JOINT lShin
      {
        OFFSET 0 -36.8199 0.73152
        CHANNELS 3 Zrotation Xrotation Yrotation
        JOINT lFoot
        {
          OFFSET -0.73152 -45.1104 -5.12064
          CHANNELS 3 Zrotation Xrotation Yrotation
          End Site
          {
            OFFSET 1.1221 -3.69964 12.103
          }
        }
      }
    }
  }
}
MOTION
Frames:	4
Frame Time:	0.03333
-0.03453887925057932 34.09988677092333 -0.18441345340390466 -2.853945016860962 8.126325607299805 6.138280391693115 -2.6242218017578125 15.281062126159668 4.390778064727783 3.113348960876465 -10.313837051391602 1.4441924095153809 -5.0211501121521 15.913214683532715 -3.907642364501953 9.453039169311523 -27.4486141204834 -4.80294942855835 -0.2622491717338562 -0.05077415332198143 -0.2670837938785553 0.018079785630106926 -0.01694238744676113 0.057880546897649765 0.03439925238490105 0.11959832906723022 -0.004399674944579601 45.995094299316406 34.24950408935547 16.016935348510742 -28.690881729125977 -31.447072982788086 64.34710693359375 -1.3872417211532593 -10.345900535583496 -1.8175162076950073 -0.13302326202392578 0.2119436413049698 -0.1435842663049698 -0.16533973813056946 -0.02743658609688282 0.0027415978256613016 0.2710700035095215 -0.1709403693675995 -0.308623731136322 8.33078670501709 5.8046417236328125 0.43782296776771545 0.1157742589712143 0.10202459990978241 -0.06489864736795425 3.059002161026001 0.9699684381484985 -0.0940956398844719 0.015446191653609276 0.12042420357465744 0.14953456819057465 10.895112991333008 0.7535903453826904 -0.019868800416588783 -0.30841273069381714 -0.03595642000436783 0.02648337185382843 2.324465751647949 -0.8805038928985596 -0.47522446513175964 -0.0016917020548135042 -0.1239151805639267 -0.14932535588741302 -51.53410720825195 40.92719650268555 -29.55797004699707 29.112579345703125 -30.698888778686523 -60.057289123535156 1.9889827966690063 -12.026948928833008 2.194894552230835 -0.07778411358594894 0.07158529758453369 -0.07823137193918228 -0.06362284719944 0.08843757212162018 0.18717028200626373 0.3541739583015442 0.2072947770357132 0.20364700257778168 -8.168875694274902 5.736315727233887 -0.29453176259994507 -0.14004944264888763 0.08940736204385757 -0.09279846400022507 -3.1593246459960938 0.9772670269012451 0.156595841050148 0.056895911693573 -0.0728067085146904 -0.11018121242523193 -11.012955665588379 0.7837516069412231 -0.06875654309988022 0.044674359261989594 9.557187877362594e-05 -0.2655886709690094 -2.370936155319214 -0.8773728013038635 0.208629310131073 0.1393537074327469 -0.19553016126155853 0.22603633999824524 -27.69882583618164 -37.931148529052734 -24.218503952026367 -0.9761291742324829 65.35867309570312 2.3366782665252686 -4.591789722442627 -11.14533519744873 -9.735472679138184 0.05895458906888962 -0.1750442087650299 -0.0019376800628378987 33.51419448852539 -37.262359619140625 26.807592391967773 1.848270058631897 66.52217864990234 -2.802933692932129 5.225411415100098 -10.992034912109375 14.55638599395752
0.06547856897367928 35.80679202564453 0.1529138215709959 -3.4396345615386963 8.10816478729248 4.545222759246826 -2.16555118560791 15.071778297424316 3.3766939640045166 2.480642080307007 -9.675333976745605 0.9993653893470764 -5.238801956176758 15.734740257263184 -3.151688575744629 9.140953063964844 -25.738300323486328 -4.637620449066162 0.3784896731376648 -0.038145579397678375 0.28328126668930054 -0.006295863073319197 0.021208547055721283 0.0022770375944674015 0.06843582540750504 -0.1510748416185379 0.018351251259446144 45.80461502075195 36.216495513916016 17.903234481811523 -28.292442321777344 -32.71003723144531 63.59859848022461 -1.9024150371551514 -11.721774101257324 -1.6121810674667358 0.053655561059713364 -0.377972275018692 0.055696796625852585 0.15674389898777008 0.03685761243104935 0.099436916410923 -0.2015855759382248 0.27998000383377075 0.38918596506118774 7.574522495269775 5.245330810546875 0.41147521138191223 -0.05883468687534332 -0.10340443253517151 0.1593175083398819 2.7471060752868652 0.8570789694786072 0.4789990186691284 -0.02978208102285862 -0.09567166864871979 -0.16890382766723633 10.078371047973633 0.7713853120803833 -0.05159200727939606 0.48214733600616455 0.14809800684452057 -0.10783941298723221 2.207447052001953 -0.628864586353302 0.021159466356039047 0.04295996576547623 0.22776076197624207 0.11019552499055862 -50.780033111572266 39.055973052978516 -30.77354621887207 27.69485092163086 -30.609479904174805 -60.11909103393555 1.8580403327941895 -13.837126731872559 2.0665881633758545 0.021739978343248367 -0.049382708966732025 0.16481490433216095 0.05273664742708206 -0.09422418475151062 -0.258169949054718 -0.45753011107444763 -0.08760514855384827 -0.188736692070961 -7.736029148101807 5.61160135269165 -0.5005732774734497 0.1542106419801712 -0.13193871080875397 0.16667510569095612 -2.911893606185913 1.0097407102584839 -0.27424854040145874 -0.19217418134212494 0.1947133094072342 0.10414718836545944 -9.839863777160645 0.7183421850204468 -0.02759714424610138 -0.09256972372531891 -0.11948537826538086 0.38134047389030457 -2.1602227687835693 -0.5694383978843689 0.08839467912912369 -0.2603949010372162 0.2588478624820709 -0.10999917984008789 -28.333633422851562 -39.34702682495117 -23.7327880859375 -2.5924785137176514 66.1631088256836 3.397918939590454 -4.692543029785156 -10.448602676391602 -9.947996139526367 -0.04937336966395378 0.11165357381105423 0.027369311079382896 33.06889343261719 -37.87541198730469 26.346345901489258 1.9146579504013062 66.57051849365234 -3.3173346519470215 4.719099521636963 -10.346000671386719 12.949241638183594
0.3903000610629774 35.68828482845022 0.5662439731743605 -11.059050559997559 -8.669808387756348 6.947946071624756 4.4889817237854 15.151491165161133 4.422855854034424 1.224752426147461 -8.55595874786377 1.5211074352264404 -2.4910857677459717 13.79791259765625 3.4327404499053955 5.609708786010742 -25.018409729003906 7.776054859161377 0.32272908091545105 0.15265342593193054 -0.0012255929177626967 0.04587625712156296 0.12025584280490875 0.48620811104774475 0.45421919226646423 -0.46352142095565796 -0.34884998202323914 77.9951171875 51.4833869934082 -19.516714096069336 -29.371540069580078 -39.353946685791016 78.5760498046875 -5.1921234130859375 -43.629940032958984 -8.465062141418457 0.09744854271411896 -0.1747661679983139 0.11433269083499908 -0.03777199238538742 0.3392254710197449 -0.05126923322677612 0.1959836483001709 -0.009162991307675838 0.7186112999916077 8.04715347290039 5.741028308868408 0.28587374091148376 -0.08346670866012573 -0.017450056970119476 0.5088717937469482 2.805734395980835 1.2071069478988647 0.6295457482337952 0.17229413986206055 0.6524189114570618 0.11493642628192902 9.671935081481934 0.8708402514457703 0.2076941430568695 -0.060821905732154846 -0.15892243385314941 0.0007500973297283053 2.1900076866149902 -0.554907500743866 -0.26156699657440186 0.31413552165031433 -0.020795801654458046 -0.045246660709381104 -50.04975128173828 12.325371742248535 -47.926727294921875 21.543392181396484 -19.083925247192383 -39.10463333129883 1.9547630548477173 18.886316299438477 -3.4276857376098633 -0.6538065075874329 0.07088040560483932 -0.09165091812610626 0.01671931892633438 -0.30826109647750854 -0.18255376815795898 -0.24902020394802094 0.03426186367869377 -0.0349094457924366 -7.054742336273193 5.581615447998047 -0.2285270392894745 -0.2057386338710785 -0.13457074761390686 0.30985963344573975 -3.0047495365142822 0.7415159344673157 0.039907556027173996 -0.19035588204860687 0.4750833213329315 0.4864474833011627 -10.290639877319336 0.7756926417350769 0.4491352438926697 -0.16491851210594177 -0.12246260046958923 0.057039715349674225 -1.7368992567062378 -0.17191892862319946 -0.22935856878757477 -0.2669065296649933 -0.13228148221969604 -0.006199495866894722 -15.774698257446289 -20.02165985107422 -13.472064018249512 -0.7979657649993896 54.99241638183594 2.7397000789642334 -8.465700149536133 -18.185884475708008 -22.655397415161133 -0.45943111181259155 -0.06590443104505539 -0.5790575742721558 60.290130615234375 -50.44197082519531 49.12184143066406 1.7816100120544434 76.08596801757812 -1.9288393259048462 0.4340185225009918 -3.3296244144439697 1.4941537380218506
0.46931819940573755 35.00239381690296 -0.048725982569489165 -16.37088966369629 -6.125089168548584 7.150940418243408 9.87670612335205 13.648982048034668 4.630044460296631 0.5028339624404907 -8.287300109863281 1.8565151691436768 0.0817679688334465 12.745036125183105 8.504446029663086 4.057316780090332 -23.432180404663086 17.591970443725586 -0.13189439475536346 0.07857906073331833 0.1966569423675537 -0.09080776572227478 -0.03607642278075218 0.14943262934684753 0.4934941530227661 0.006892269477248192 -0.494006484746933 102.0421371459961 46.44994354248047 -53.0560188293457 -26.05043601989746 -44.48927307128906 96.49176788330078 -20.053796768188477 -72.55532836914062 -28.457355499267578 -0.30207201838493347 -0.25921082496643066 0.10437802970409393 -0.508089542388916 0.06825385242700577 0.2714322507381439 -0.2723511755466461 -0.042217154055833817 1.0092343091964722 8.677077293395996 5.420743465423584 0.7456743717193604 -0.9415755867958069 0.3489070534706116 0.6277039647102356 3.3804237842559814 0.33614999055862427 0.5910730361938477 1.0224663019180298 0.5180156826972961 -0.005885525606572628 9.05509090423584 0.4224883019924164 0.1500452607870102 -0.10024899989366531 -0.09514770656824112 -0.6514908075332642 1.5970617532730103 -0.5935229659080505 0.025525080040097237 -0.18510808050632477 -0.4110785126686096 0.11787866801023483 -62.49839782714844 -10.146231651306152 -64.01449584960938 12.139110565185547 -4.553469181060791 -20.70254898071289 5.001513481140137 49.19500732421875 -11.04368782043457 -0.31119316816329956 0.23573563992977142 -0.3381364643573761 -0.9395583271980286 0.1512293964624405 0.016059638932347298 -0.13457119464874268 -0.1822575479745865 0.061074379831552505 -7.621716499328613 5.5726213455200195 -0.7574847340583801 -0.5268303751945496 -0.5696268677711487 -0.03367215022444725 -2.844005823135376 -0.01592138223350048 0.7251588702201843 -0.4239059388637543 0.48490145802497864 0.4332675337791443 -10.583261489868164 1.1559046506881714 0.0337723009288311 0.046801209449768066 -0.8030235171318054 1.0211890935897827 -1.122757911682129 -0.22897543013095856 0.30145320296287537 -0.32028037309646606 -0.6073010563850403 0.576651394367218 -10.581811904907227 -2.7561020851135254 -8.274127960205078 0.026626503095030785 45.82255554199219 2.1083199977874756 -12.059359550476074 -21.724803924560547 -31.297161102294922 -0.05937366560101509 -0.28692567348480225 -0.6007592678070068 82.7899398803711 -53.856815338134766 69.74420166015625 2.7086408138275146 81.9423828125 -2.4447109699249268 -2.2950758934020996 0.7974438667297363 -8.292462348937988
